<?xml version="1.0" encoding="UTF-8" standalone="no"?>
<svg
   xmlns:dc="http://purl.org/dc/elements/1.1/"
   xmlns:cc="http://creativecommons.org/ns#"
   xmlns:rdf="http://www.w3.org/1999/02/22-rdf-syntax-ns#"
   xmlns:svg="http://www.w3.org/2000/svg"
   xmlns="http://www.w3.org/2000/svg"
   xmlns:sodipodi="http://sodipodi.sourceforge.net/DTD/sodipodi-0.dtd"
   xmlns:inkscape="http://www.inkscape.org/namespaces/inkscape"
   width="187.5"
   height="165.16679"
   viewBox="0 0 150 132.13344"
   version="1.1"
   id="svg3108"
   inkscape:version="0.48.5 r10040"
   sodipodi:docname="Rzl_logo.svg">
  <metadata
     id="metadata3128">
    <rdf:RDF>
      <cc:Work
         rdf:about="">
        <dc:format>image/svg+xml</dc:format>
        <dc:type
           rdf:resource="http://purl.org/dc/dcmitype/StillImage" />
      </cc:Work>
    </rdf:RDF>
  </metadata>
  <defs
     id="defs3126" />
  <sodipodi:namedview
     pagecolor="#ffffff"
     bordercolor="#666666"
     borderopacity="1"
     objecttolerance="10"
     gridtolerance="10"
     guidetolerance="10"
     inkscape:pageopacity="0"
     inkscape:pageshadow="2"
     inkscape:window-width="1362"
     inkscape:window-height="729"
     id="namedview3124"
     showgrid="false"
     fit-margin-top="0"
     fit-margin-left="0"
     fit-margin-right="0"
     fit-margin-bottom="0"
     inkscape:zoom="1.2586667"
     inkscape:cx="93.75"
     inkscape:cy="81.300283"
     inkscape:window-x="0"
     inkscape:window-y="18"
     inkscape:window-maximized="0"
     inkscape:current-layer="svg3108" />
  <path
     d="m 85.63,13.583209 c 2.08,-4.91 4.44,-10.53 9.51,-12.99000005 3.81,-0.61 8.67,-1.49 11.62,1.69000005 5.36,5.01 6.86,12.77 6.54,19.82 -1.06,14.27 -5.02,28.34 -12,40.86 3.8,2.95 7.45,6.76 12.5,7.3 12.55,1.54 24.81,-3.06 36.2,-7.79 l 0,8.29 c -7.79,2.95 -15.78,5.76 -24.06,6.88 -6.18,0.22 -12.66,0.92 -18.57,-1.28 -3.55,-1.57 -6.51,-4.15 -9.56,-6.5 -2.5,4 -5.47,7.68 -8.3,11.45 0.81,3.12 3.31,5.62 4.32,8.73 3.34,9.55 3.46,20.260001 0.12,29.830001 -1.89,5.18 -5.76,9.91 -11.07,11.76 -6.74,1.66 -14.6,-0.87 -18.54,-6.72 -2.94,-5.1 -3.36,-11.36 -2.38,-17.06 2.11,-10.570001 10.98,-17.530001 16.92,-25.920001 -0.73,-0.08 -2.19,-0.23 -2.92,-0.3 -3.28,3.76 -5.88,8.77 -11.04,10.23 -6.71,2.69 -15.38,-3.51 -14.2,-10.83 1.18,-4.66 5.74,-7.65 10.28,-8.41 3.67,-0.5 7.38,-0.01 11.05,0.25 2.77,-5.79 3.97,-12.52 2.54,-18.83 -0.9,-4.24 -4.34,-7.78 -8.51,-8.93 -6.87,-1.53 -14.15,0.07 -20.04,3.85 4.2,9.32 5.34,20.36 1.54,30 -1.47,3.93 -5.19,7.25 -9.59,6.95 -4.27,0.51 -7.6,-3.17 -9.05,-6.8 -2.99,-9.9 -0.03,-20.88 6.04,-29.02 0.58,-0.7 1.26,-2.16 0,-2.63 -5.62,-5.39 -15.63,-4.97 -20.57,1.1 -5.4,6.35 -9.52,13.66 -14.41,20.39 l 0,-13.37 c 4.75,-6.53 8.7,-14.88 16.79,-17.78 8.26,-3.18 18.35,-1.43 24.41,5.24 6.42,-4.28 14.05,-6.4 21.77,-5.76 9.29,-0.38 17.64,6.99 19.23,16 0.96,7.1 0.64,14.73 -2.82,21.16 1.51,0.62 3.03,1.24 4.55,1.85 2.72,-3.91 6.14,-7.46 7.91,-11.94 -10.69,-14.4 -12.01,-34.15 -6.21,-50.77 z"
     id="path3112"
     inkscape:connector-curvature="0"
     style="fill:#1a171b" />
  <path
     d="m 97.74,7.753209 c 1.53,-0.32 3.71,-0.88 4.63,0.82 4.04,4.93 3.42,11.69 2.99,17.63 -1.42,10.67 -4.43,21.15 -9.36,30.75 -5.75,-9.46 -7.55,-21.19 -5.45,-32.02 0.99,-6.14 2.81,-12.57 7.19,-17.18 z"
     id="path3114"
     inkscape:connector-curvature="0"
     style="fill:#ffffff" />
  <path
     d="m 35.73,65.993209 c 1.11,-3.73 2.49,-7.38 4.57,-10.69 2.79,6.54 2.93,14.11 0.31,20.73 -0.44,1.35 -1.76,2.07 -2.69,3.03 -3.61,-3.38 -2.37,-8.69 -2.19,-13.07 z"
     id="path3118"
     inkscape:connector-curvature="0"
     style="fill:#ffffff" />
  <path
     d="m 58.08,81.863209 c 2.69,-1.56 5.7,-2.44 8.84,-2.13 -0.06,0.44 -0.19,1.34 -0.25,1.78 -1.66,1.42 -3.16,3.67 -5.65,3.31 -1.76,0.17 -2.52,-1.59 -2.94,-2.96 z"
     id="path3120"
     inkscape:connector-curvature="0"
     style="fill:#ffffff" />
  <path
     d="m 83.61,88.323209 c 0.27,0.05 0.8,0.16 1.06,0.21 4.36,6.94 4.52,15.540001 3.59,23.430001 -0.83,4.98 -2.92,10.84 -8.15,12.63 -4.37,0.6 -9.7,-1.9 -10.51,-6.59 -0.87,-5.03 -0.63,-10.54 2.24,-14.93 3.41,-5.300001 7.87,-9.830001 11.77,-14.750001 z"
     id="path3122"
     inkscape:connector-curvature="0"
     style="fill:#ffffff" />
</svg>
