<?xml version="1.0" encoding="UTF-8" standalone="no"?>
<svg
   xmlns:dc="http://purl.org/dc/elements/1.1/"
   xmlns:cc="http://creativecommons.org/ns#"
   xmlns:rdf="http://www.w3.org/1999/02/22-rdf-syntax-ns#"
   xmlns:svg="http://www.w3.org/2000/svg"
   xmlns="http://www.w3.org/2000/svg"
   xmlns:sodipodi="http://sodipodi.sourceforge.net/DTD/sodipodi-0.dtd"
   xmlns:inkscape="http://www.inkscape.org/namespaces/inkscape"
   width="187.5"
   height="165.16679"
   viewBox="0 0 150 132.13344"
   version="1.1"
   id="svg3108"
   inkscape:version="0.48.5 r10040"
   sodipodi:docname="rzl-logo.svg">
  <metadata
     id="metadata3128">
    <rdf:RDF>
      <cc:Work
         rdf:about="">
        <dc:format>image/svg+xml</dc:format>
        <dc:type
           rdf:resource="http://purl.org/dc/dcmitype/StillImage" />
      </cc:Work>
    </rdf:RDF>
  </metadata>
  <defs
     id="defs3126" />
  <sodipodi:namedview
     pagecolor="#ffffff"
     bordercolor="#666666"
     borderopacity="1"
     objecttolerance="10"
     gridtolerance="10"
     guidetolerance="10"
     inkscape:pageopacity="0"
     inkscape:pageshadow="2"
     inkscape:window-width="1362"
     inkscape:window-height="729"
     id="namedview3124"
     showgrid="false"
     fit-margin-top="0"
     fit-margin-left="0"
     fit-margin-right="0"
     fit-margin-bottom="0"
     inkscape:zoom="1.2586667"
     inkscape:cx="93.75"
     inkscape:cy="81.300283"
     inkscape:window-x="0"
     inkscape:window-y="18"
     inkscape:window-maximized="0"
     inkscape:current-layer="svg3108" />
  <path
     style="fill:#1a171b"
     d="M 125.625 0 C 123.3488 0.0095489446 121.02109 0.41640626 118.9375 0.75 C 112.6 3.8249999 109.63125 10.83125 107.03125 16.96875 C 99.78125 37.743749 101.45 62.437501 114.8125 80.4375 C 112.6 86.0375 108.30625 90.4875 104.90625 95.375 C 103.00625 94.6125 101.10625 93.8375 99.21875 93.0625 C 103.54375 85.025 103.95 75.46875 102.75 66.59375 C 100.7625 55.33125 90.33125 46.11875 78.71875 46.59375 C 69.06875 45.79375 59.525 48.4625 51.5 53.8125 C 43.925 45.475 31.325 43.275 21 47.25 C 10.8875 50.875 5.9374998 61.30625 0 69.46875 L 0 86.1875 C 6.1124998 77.775 11.25 68.65625 18 60.71875 C 24.175 53.13125 36.69375 52.60625 43.71875 59.34375 C 45.29375 59.93125 44.44375 61.75 43.71875 62.625 C 36.13125 72.8 32.45 86.53125 36.1875 98.90625 C 38 103.44375 42.1625 108.04375 47.5 107.40625 C 53 107.78125 57.63125 103.63125 59.46875 98.71875 C 64.21875 86.66875 62.8125 72.86875 57.5625 61.21875 C 64.925 56.49375 74.00625 54.49375 82.59375 56.40625 C 87.80625 57.84375 92.125 62.2625 93.25 67.5625 C 95.0375 75.45 93.525 83.85625 90.0625 91.09375 C 85.475 90.76875 80.8375 90.15625 76.25 90.78125 C 70.575 91.73125 64.88125 95.45625 63.40625 101.28125 C 61.93125 110.43125 72.76875 118.20625 81.15625 114.84375 C 87.60625 113.01875 90.8375 106.73125 94.9375 102.03125 C 95.85 102.11875 97.68125 102.30625 98.59375 102.40625 C 91.16875 112.89375 80.075 121.6 77.4375 134.8125 C 76.2125 141.9375 76.7625 149.78125 80.4375 156.15625 C 85.3625 163.46875 95.16875 166.60625 103.59375 164.53125 C 110.23125 162.21875 115.075 156.31875 117.4375 149.84375 C 121.6125 137.88125 121.45625 124.5 117.28125 112.5625 C 116.01875 108.675 112.8875 105.55625 111.875 101.65625 C 115.4125 96.94375 119.125 92.34375 122.25 87.34375 C 126.0625 90.28125 129.78125 93.50625 134.21875 95.46875 C 141.60625 98.21875 149.7125 97.3375 157.4375 97.0625 C 167.7875 95.6625 177.7625 92.15625 187.5 88.46875 L 187.5 78.09375 C 173.2625 84.00625 157.9375 89.76875 142.25 87.84375 C 135.9375 87.16875 131.375 82.40625 126.625 78.71875 C 135.35 63.068751 140.3 45.462499 141.625 27.625 C 142.025 18.8125 140.1375 9.1062498 133.4375 2.84375 C 131.36328 0.60781255 128.55154 -0.012277214 125.625 0 z M 125.34375 9.25 C 126.40781 9.290625 127.39375 9.65625 127.96875 10.71875 C 133.01875 16.88125 132.225 25.325 131.6875 32.75 C 129.9125 46.0875 126.1625 59.1875 120 71.1875 C 112.8125 59.3625 110.5625 44.693749 113.1875 31.15625 C 114.425 23.48125 116.7125 15.45 122.1875 9.6875 C 123.14375 9.4875 124.27969 9.209375 125.34375 9.25 z M 104.5 110.40625 C 104.8375 110.46875 105.51875 110.59375 105.84375 110.65625 C 111.29375 119.33125 111.475 130.10625 110.3125 139.96875 C 109.275 146.19375 106.6625 153.5125 100.125 155.75 C 94.6625 156.5 88.0125 153.3625 87 147.5 C 85.9125 141.2125 86.225 134.33125 89.8125 128.84375 C 94.075 122.21875 99.625 116.55625 104.5 110.40625 z "
     transform="matrix(0.80000003,0,0,0.80000003,-2.8047819e-6,0)"
     id="path3112" />
  <path
     d="m 35.73,65.993209 c 1.11,-3.73 2.49,-7.38 4.57,-10.69 2.79,6.54 2.93,14.11 0.31,20.73 -0.44,1.35 -1.76,2.07 -2.69,3.03 -3.61,-3.38 -2.37,-8.69 -2.19,-13.07 z"
     id="path3118"
     inkscape:connector-curvature="0"
     style="fill:#ffffff" />
  <path
     d="m 58.08,81.863209 c 2.69,-1.56 5.7,-2.44 8.84,-2.13 -0.06,0.44 -0.19,1.34 -0.25,1.78 -1.66,1.42 -3.16,3.67 -5.65,3.31 -1.76,0.17 -2.52,-1.59 -2.94,-2.96 z"
     id="path3120"
     inkscape:connector-curvature="0"
     style="fill:#ffffff" />
</svg>
